<svg width="180" height="160" viewBox="0 0 180 160" fill="none" xmlns="http://www.w3.org/2000/svg">
<g clip-path="url(#clip0_783_10)">
<path d="M50.904 50.2321H25.4576L21.2054 58H6.00446L32.3549 9.9866H44.0067L70.3571 58H55.1563L50.904 50.2321ZM31.3504 39.4509H45.0112L38.1808 26.9621L31.3504 39.4509Z" fill="#4BBC50"/>
<path d="M121.434 85.9938C121.434 89.3866 120.988 92.545 120.095 95.4691C119.224 98.3708 117.796 100.904 115.809 103.069C113.823 105.234 111.222 106.931 108.008 108.159C104.816 109.386 100.91 110 96.2894 110H65.0178V61.9876H96.2894C100.91 61.9876 104.816 62.6126 108.008 63.8626C111.222 65.0902 113.823 66.7866 115.809 68.9517C117.796 71.0946 119.224 73.628 120.095 76.552C120.988 79.4761 121.434 82.6233 121.434 85.9938ZM79.1804 98.2145H96.2894C100.084 98.2145 102.852 97.1989 104.593 95.1677C106.334 93.1142 107.204 90.0562 107.204 85.9938C107.204 81.9314 106.334 78.8846 104.593 76.8534C102.852 74.7998 100.084 73.7731 96.2894 73.7731H79.1804V98.2145Z" fill="#4BBC50"/>
<path d="M157.402 112.513C155.951 111.933 154.321 111.42 152.513 110.973C150.973 110.594 149.143 110.248 147.022 109.935C144.902 109.6 142.558 109.433 139.991 109.433C136.754 109.433 134.243 109.69 132.458 110.203C130.694 110.694 129.813 111.576 129.813 112.848C129.813 113.496 130.013 114.042 130.415 114.489C130.817 114.913 131.464 115.281 132.357 115.594C133.272 115.884 134.455 116.152 135.906 116.397C137.357 116.621 139.121 116.844 141.196 117.067C145.75 117.58 149.623 118.239 152.815 119.042C156.007 119.824 158.596 120.828 160.583 122.056C162.569 123.261 164.009 124.734 164.902 126.475C165.817 128.194 166.275 130.237 166.275 132.603C166.275 135.482 165.594 137.926 164.232 139.935C162.893 141.922 161.018 143.54 158.607 144.79C156.196 146.04 153.317 146.944 149.969 147.502C146.643 148.06 142.982 148.339 138.987 148.339C136.799 148.339 134.757 148.261 132.859 148.105C130.984 147.949 129.254 147.737 127.67 147.469C126.107 147.223 124.679 146.933 123.384 146.598C122.089 146.263 120.94 145.917 119.935 145.56C117.569 144.734 115.594 143.797 114.009 142.748L120.638 133.071C122.045 133.719 123.663 134.299 125.493 134.812C127.033 135.259 128.886 135.661 131.051 136.018C133.239 136.375 135.661 136.554 138.317 136.554C140.504 136.554 142.446 136.498 144.143 136.386C145.839 136.252 147.268 136.04 148.429 135.75C149.589 135.437 150.471 135.036 151.074 134.545C151.676 134.031 151.978 133.384 151.978 132.603C151.978 132 151.788 131.509 151.408 131.129C151.051 130.75 150.371 130.426 149.366 130.158C148.384 129.868 147.011 129.612 145.248 129.388C143.507 129.143 141.241 128.864 138.451 128.551C133.808 128.06 130.002 127.335 127.033 126.375C124.065 125.393 121.721 124.232 120.002 122.893C118.306 121.531 117.134 120.002 116.487 118.306C115.839 116.609 115.516 114.79 115.516 112.848C115.516 110.75 115.951 108.786 116.821 106.955C117.692 105.103 119.076 103.496 120.973 102.134C122.871 100.75 125.326 99.6562 128.339 98.8527C131.375 98.0491 135.036 97.6473 139.321 97.6473C143.473 97.6473 147.089 97.9263 150.17 98.4844C153.272 99.0201 155.85 99.6116 157.904 100.259C160.292 101.018 162.335 101.877 164.031 102.837L157.402 112.513Z" fill="#4BBC50"/>
</g>
<defs>
<clipPath id="clip0_783_10">
<rect width="180" height="160" fill="white"/>
</clipPath>
</defs>
</svg>
