<svg width="180" height="160" viewBox="0 0 180 160" fill="none" xmlns="http://www.w3.org/2000/svg">
<g clip-path="url(#clip0_783_18)">
<path d="M35.8912 76.3409C35.8912 80.2275 36.5305 84.0373 37.8089 87.7705C39.1386 91.5036 41.4398 94.8276 44.7127 97.7426C47.9856 100.657 52.358 103.01 57.8299 104.8C63.3529 106.538 70.3334 107.408 78.7713 107.408C84.6523 107.408 89.9452 106.973 94.65 106.104C99.4059 105.234 103.471 104.263 106.847 103.189C110.784 101.962 114.262 100.555 117.279 98.9699L132.391 120.985C129.118 123.491 124.95 125.741 119.887 127.736C117.739 128.605 115.285 129.449 112.523 130.267C109.762 131.034 106.668 131.724 103.241 132.338C99.815 132.952 96.0563 133.438 91.9652 133.796C87.9252 134.205 83.5272 134.409 78.7713 134.409C65.782 134.409 54.5314 132.901 45.0195 129.883C35.5588 126.815 27.709 122.673 21.47 117.457C15.2822 112.189 10.6797 106.027 7.66249 98.9699C4.64528 91.9127 3.13668 84.3697 3.13668 76.3409C3.13668 68.3121 4.64528 60.7691 7.66249 53.7119C10.6797 46.6547 15.2822 40.518 21.47 35.3018C27.709 30.0345 35.5588 25.8922 45.0195 22.875C54.5314 19.8067 65.782 18.2725 78.7713 18.2725C83.5272 18.2725 87.9252 18.4771 91.9652 18.8862C96.0563 19.2442 99.815 19.7556 103.241 20.4204C106.668 21.034 109.762 21.75 112.523 22.5682C115.285 23.3864 117.739 24.2047 119.887 25.0229C124.95 27.0173 129.118 29.2418 132.391 31.6965L117.279 53.7119C114.262 52.1777 110.784 50.7714 106.847 49.4929C103.471 48.4701 99.4059 47.524 94.65 46.6547C89.9452 45.7342 84.6523 45.2739 78.7713 45.2739C70.3334 45.2739 63.3529 46.1689 57.8299 47.9587C52.358 49.6975 47.9856 52.0243 44.7127 54.9392C41.4398 57.8541 39.1386 61.1782 37.8089 64.9113C36.5305 68.6445 35.8912 72.4543 35.8912 76.3409Z" fill="#7B6256"/>
<path d="M53.1876 100.486V50.4209H86.1106C89.3458 50.4209 92.3483 50.7467 95.1181 51.3984C97.8879 52.0269 100.274 53.051 102.275 54.4708C104.3 55.8906 105.883 57.7409 107.023 60.0219C108.164 62.2796 108.734 65.0261 108.734 68.2614C108.734 70.3096 108.408 72.1135 107.757 73.6729C107.128 75.2091 106.325 76.5474 105.348 77.6879C104.37 78.8051 103.288 79.7245 102.101 80.446C100.937 81.1676 99.8314 81.7145 98.784 82.0869L109.188 100.486H93.3375L84.5744 85.0196H67.9558V100.486H53.1876ZM67.9558 62.7451V73.7776H86.1106C88.7872 73.7776 90.7423 73.3587 91.9759 72.5208C93.2095 71.6596 93.8263 70.2398 93.8263 68.2614C93.8263 66.3063 93.2095 64.8981 91.9759 64.0369C90.7423 63.1757 88.7872 62.7451 86.1106 62.7451H67.9558Z" fill="#7B6256"/>
<path d="M134.379 74.8348V97.0972H122.71V57.5381H137.827L149.331 80.7384L160.862 57.5381H175.952V97.0972H164.283V74.8348L153.221 97.0972H145.441L134.379 74.8348Z" fill="#7B6256"/>
</g>
<defs>
<clipPath id="clip0_783_18">
<rect width="180" height="160" fill="white"/>
</clipPath>
</defs>
</svg>
