<svg width="180" height="160" viewBox="0 0 180 160" fill="none" xmlns="http://www.w3.org/2000/svg">
<g clip-path="url(#clip0_783_14)">
<path d="M20.3527 89.9866H34.5156V138H20.3527V89.9866ZM55.8772 113.993C55.8772 115.69 56.1563 117.353 56.7143 118.982C57.2946 120.612 58.2991 122.062 59.7277 123.335C61.1563 124.607 63.0647 125.634 65.4531 126.415C67.8638 127.174 70.9107 127.554 74.5938 127.554C77.0938 127.554 79.2701 127.431 81.1228 127.185C82.9755 126.94 84.3705 126.583 85.308 126.114V119.317H73.2545V108.837H98.2321V132.676C96.7813 133.926 95.1406 134.975 93.3103 135.824C91.5022 136.672 89.5714 137.364 87.5179 137.9C85.4866 138.413 83.3661 138.781 81.1563 139.004C78.9688 139.228 76.7813 139.339 74.5938 139.339C68.9241 139.339 64.0134 138.681 59.8616 137.364C55.7321 136.025 52.3058 134.217 49.5826 131.94C46.8817 129.641 44.8728 126.951 43.5558 123.871C42.2388 120.79 41.5804 117.498 41.5804 113.993C41.5804 110.489 42.2388 107.196 43.5558 104.116C44.8728 101.036 46.8817 98.3571 49.5826 96.0804C52.3058 93.7812 55.7321 91.9732 59.8616 90.6562C64.0134 89.317 68.9241 88.6473 74.5938 88.6473C76.6696 88.6473 78.5893 88.7366 80.3527 88.9152C82.1384 89.0714 83.779 89.2946 85.2746 89.5848C86.7701 89.8527 88.1205 90.1652 89.3259 90.5223C90.5313 90.8795 91.6027 91.2366 92.5402 91.5937C94.75 92.4643 96.5692 93.4353 97.9978 94.5067L91.4018 104.116C90.0848 103.446 88.567 102.833 86.8482 102.275C85.375 101.828 83.6005 101.415 81.5246 101.036C79.471 100.634 77.1607 100.433 74.5938 100.433C70.9107 100.433 67.8638 100.824 65.4531 101.605C63.0647 102.364 61.1563 103.379 59.7277 104.652C58.2991 105.924 57.2946 107.375 56.7143 109.004C56.1563 110.634 55.8772 112.297 55.8772 113.993ZM105.598 89.9866H122.172L146.112 119.685V89.9866H160.275V138H143.701L119.761 108.301V138H105.598V89.9866Z" fill="#FE5125"/>
<path d="M60.4353 45.8395C60.4353 49.2324 59.9888 52.3908 59.096 55.3149C58.2255 58.2167 56.7969 60.7502 54.8103 62.9154C52.8237 65.0806 50.2232 66.777 47.0089 68.0047C43.817 69.2324 39.9107 69.8462 35.2902 69.8462H4.01786V21.8328H35.2902C39.9107 21.8328 43.817 22.4578 47.0089 23.7078C50.2232 24.9355 52.8237 26.6319 54.8103 28.7971C56.7969 30.9399 58.2255 33.4734 59.096 36.3975C59.9888 39.3216 60.4353 42.469 60.4353 45.8395ZM18.1808 58.0605H35.2902C39.0848 58.0605 41.8527 57.0449 43.5938 55.0136C45.3348 52.96 46.2054 49.902 46.2054 45.8395C46.2054 41.777 45.3348 38.7301 43.5938 36.6989C41.8527 34.6453 39.0848 33.6185 35.2902 33.6185H18.1808V58.0605ZM115.446 39.8127V51.2971H81.3281V58.0605H117.388V69.8462H67.1652V21.8328H117.054V33.6185H81.3281V39.8127H115.446ZM166.138 35.3596C164.688 34.7792 163.058 34.2658 161.25 33.8194C159.71 33.4399 157.879 33.094 155.759 32.7815C153.638 32.4466 151.295 32.2792 148.728 32.2792C145.491 32.2792 142.98 32.5359 141.194 33.0493C139.431 33.5404 138.549 34.4221 138.549 35.6944C138.549 36.3417 138.75 36.8886 139.152 37.335C139.554 37.7591 140.201 38.1274 141.094 38.4399C142.009 38.7301 143.192 38.998 144.643 39.2435C146.094 39.4667 147.857 39.6899 149.933 39.9132C154.487 40.4265 158.359 41.085 161.551 41.8886C164.743 42.6698 167.333 43.6743 169.319 44.902C171.306 46.1074 172.746 47.5806 173.638 49.3216C174.554 51.0404 175.011 53.0828 175.011 55.4489C175.011 58.3283 174.33 60.7725 172.969 62.7815C171.629 64.7681 169.754 66.3864 167.344 67.6364C164.933 68.8864 162.054 69.7904 158.705 70.3484C155.379 70.9065 151.719 71.1855 147.723 71.1855C145.536 71.1855 143.493 71.1074 141.596 70.9511C139.721 70.7949 137.991 70.5828 136.406 70.3149C134.844 70.0694 133.415 69.7792 132.121 69.4444C130.826 69.1096 129.676 68.7636 128.672 68.4065C126.306 67.5806 124.33 66.6431 122.746 65.594L129.375 55.9176C130.781 56.5649 132.4 57.1453 134.23 57.6587C135.77 58.1051 137.623 58.5069 139.788 58.864C141.975 59.2212 144.397 59.3998 147.054 59.3998C149.241 59.3998 151.183 59.344 152.879 59.2324C154.576 59.0984 156.004 58.8864 157.165 58.5962C158.326 58.2837 159.208 57.8819 159.81 57.3908C160.413 56.8774 160.714 56.2301 160.714 55.4489C160.714 54.8462 160.525 54.3551 160.145 53.9757C159.788 53.5962 159.107 53.2725 158.103 53.0047C157.121 52.7145 155.748 52.4578 153.984 52.2346C152.243 51.989 149.978 51.71 147.188 51.3975C142.545 50.9065 138.739 50.181 135.77 49.2212C132.801 48.239 130.458 47.0783 128.739 45.739C127.042 44.3774 125.871 42.8484 125.223 41.152C124.576 39.4556 124.252 37.6364 124.252 35.6944C124.252 33.5962 124.688 31.6319 125.558 29.8015C126.429 27.9489 127.813 26.3417 129.71 24.9801C131.607 23.5962 134.063 22.5024 137.076 21.6989C140.112 20.8953 143.772 20.4935 148.058 20.4935C152.21 20.4935 155.826 20.7725 158.906 21.3306C162.009 21.8663 164.587 22.4578 166.641 23.1051C169.029 23.864 171.071 24.7234 172.768 25.6832L166.138 35.3596Z" fill="#FE5125"/>
</g>
<defs>
<clipPath id="clip0_783_14">
<rect width="180" height="160" fill="white"/>
</clipPath>
</defs>
</svg>
