<svg width="180" height="160" viewBox="0 0 180 160" fill="none" xmlns="http://www.w3.org/2000/svg">
<g clip-path="url(#clip0_783_16)">
<path d="M51.7336 109.633C51.7336 112.482 51.3587 115.135 50.6089 117.591C49.8778 120.028 48.678 122.155 47.0096 123.974C45.3412 125.792 43.1573 127.217 40.4578 128.248C37.7771 129.279 34.4966 129.794 30.6161 129.794H4.35282L4.35282 89.4716H30.6161C34.4966 89.4716 37.7771 89.9965 40.4578 91.0463C43.1573 92.0773 45.3412 93.502 47.0096 95.3204C48.678 97.12 49.8778 99.2477 50.6089 101.703C51.3587 104.159 51.7336 106.802 51.7336 109.633ZM16.2472 119.897H30.6161C33.803 119.897 36.1275 119.044 37.5897 117.338C39.0519 115.613 39.783 113.045 39.783 109.633C39.783 106.221 39.0519 103.662 37.5897 101.957C36.1275 100.232 33.803 99.3695 30.6161 99.3695H16.2472V119.897ZM57.6668 89.4716H69.5612V129.794H57.6668V89.4716ZM76.6191 89.4716H90.5381L110.643 114.413V89.4716H122.538V129.794H108.619L88.5135 104.853V129.794H76.6191V89.4716ZM140.197 109.633C140.197 111.058 140.431 112.454 140.9 113.823C141.387 115.191 142.23 116.41 143.43 117.478C144.63 118.547 146.233 119.409 148.239 120.065C150.263 120.703 152.822 121.021 155.915 121.021C158.015 121.021 159.842 120.918 161.398 120.712C162.954 120.506 164.126 120.206 164.913 119.812V114.104H154.79V105.303H175.767V125.324C174.549 126.373 173.171 127.254 171.634 127.967C170.115 128.679 168.494 129.26 166.769 129.71C165.063 130.141 163.282 130.451 161.427 130.638C159.589 130.826 157.752 130.919 155.915 130.919C151.154 130.919 147.03 130.366 143.543 129.26C140.075 128.135 137.197 126.617 134.91 124.705C132.642 122.774 130.955 120.515 129.849 117.928C128.743 115.341 128.19 112.576 128.19 109.633C128.19 106.69 128.743 103.925 129.849 101.338C130.955 98.7509 132.642 96.5014 134.91 94.5893C137.197 92.6584 140.075 91.14 143.543 90.034C147.03 88.9092 151.154 88.3468 155.915 88.3468C157.659 88.3468 159.271 88.4218 160.752 88.5718C162.251 88.703 163.629 88.8905 164.885 89.1342C166.141 89.3591 167.275 89.6216 168.288 89.9215C169.3 90.2214 170.2 90.5214 170.987 90.8213C172.843 91.5524 174.371 92.3679 175.57 93.2677L170.031 101.338C168.925 100.776 167.65 100.26 166.207 99.7913C164.97 99.4164 163.479 99.0696 161.736 98.7509C160.011 98.4135 158.071 98.2448 155.915 98.2448C152.822 98.2448 150.263 98.5728 148.239 99.229C146.233 99.8663 144.63 100.719 143.43 101.788C142.23 102.856 141.387 104.075 140.9 105.443C140.431 106.812 140.197 108.208 140.197 109.633Z" fill="#E7B420"/>
<path d="M17.7856 58.8649H50.4416V70.3944H3.93051L3.93051 23.4248H17.7856V58.8649ZM97.968 62.7954H73.0748L68.915 70.3944H54.0445L79.8222 23.4248H91.2206L116.998 70.3944H102.128L97.968 62.7954ZM78.8395 52.2485H92.2033L85.5214 40.0312L78.8395 52.2485ZM121.911 23.4248H138.125L161.544 52.4778V23.4248H175.399V70.3944H159.186L135.766 41.3414V70.3944H121.911V23.4248Z" fill="#E7B420"/>
</g>
<defs>
<clipPath id="clip0_783_16">
<rect width="180" height="160" fill="white"/>
</clipPath>
</defs>
</svg>
