<svg width="316" height="71" viewBox="0 0 316 71" fill="none" xmlns="http://www.w3.org/2000/svg">
<g filter="url(#filter0_f_731_6)">
<path d="M6 28.9416C6 27.6754 6 27.0423 6.24642 26.5587C6.46318 26.1333 6.80905 25.7874 7.23446 25.5706C7.71808 25.3242 8.35119 25.3242 9.61739 25.3242H306.383C307.649 25.3242 308.282 25.3242 308.766 25.5706C309.191 25.7874 309.537 26.1333 309.754 26.5587C310 27.0423 310 27.6754 310 28.9416V61.7068C310 62.973 310 63.6061 309.754 64.0898C309.537 64.5152 309.191 64.861 308.766 65.0778C308.282 65.3242 307.649 65.3242 306.383 65.3242H9.6174C8.35119 65.3242 7.71808 65.3242 7.23446 65.0778C6.80905 64.861 6.46318 64.5152 6.24642 64.0898C6 63.6061 6 62.973 6 61.7068V28.9416Z" fill="url(#paint0_linear_731_6)" fill-opacity="0.4"/>
</g>
<g filter="url(#filter1_i_731_6)">
<path d="M3 3.2C3 2.0799 3 1.51984 3.21799 1.09202C3.40973 0.715695 3.71569 0.409734 4.09202 0.217987C4.51984 0 5.0799 0 6.2 0H309.8C310.92 0 311.48 0 311.908 0.217987C312.284 0.409734 312.59 0.715695 312.782 1.09202C313 1.51984 313 2.0799 313 3.2V56.8C313 57.9201 313 58.4802 312.782 58.908C312.59 59.2843 312.284 59.5903 311.908 59.782C311.48 60 310.92 60 309.8 60H6.20002C5.0799 60 4.51984 60 4.09202 59.782C3.71569 59.5903 3.40973 59.2843 3.21799 58.908C3 58.4802 3 57.9201 3 56.8V3.2Z" fill="url(#paint1_linear_731_6)"/>
</g>
<defs>
<filter id="filter0_f_731_6" x="0.347826" y="19.672" width="315.304" height="51.3043" filterUnits="userSpaceOnUse" color-interpolation-filters="sRGB">
<feFlood flood-opacity="0" result="BackgroundImageFix"/>
<feBlend mode="normal" in="SourceGraphic" in2="BackgroundImageFix" result="shape"/>
<feGaussianBlur stdDeviation="2.82609" result="effect1_foregroundBlur_731_6"/>
</filter>
<filter id="filter1_i_731_6" x="3" y="0" width="310" height="60.5435" filterUnits="userSpaceOnUse" color-interpolation-filters="sRGB">
<feFlood flood-opacity="0" result="BackgroundImageFix"/>
<feBlend mode="normal" in="SourceGraphic" in2="BackgroundImageFix" result="shape"/>
<feColorMatrix in="SourceAlpha" type="matrix" values="0 0 0 0 0 0 0 0 0 0 0 0 0 0 0 0 0 0 127 0" result="hardAlpha"/>
<feOffset dy="0.543478"/>
<feGaussianBlur stdDeviation="0.543478"/>
<feComposite in2="hardAlpha" operator="arithmetic" k2="-1" k3="1"/>
<feColorMatrix type="matrix" values="0 0 0 0 1 0 0 0 0 1 0 0 0 0 1 0 0 0 0.4 0"/>
<feBlend mode="normal" in2="shape" result="effect1_innerShadow_731_6"/>
</filter>
<linearGradient id="paint0_linear_731_6" x1="6" y1="34.6575" x2="272.514" y2="57.8129" gradientUnits="userSpaceOnUse">
<stop stop-color="#FE2120"/>
<stop offset="1" stop-color="#FD5825"/>
</linearGradient>
<linearGradient id="paint1_linear_731_6" x1="3" y1="14" x2="276.906" y2="30.2398" gradientUnits="userSpaceOnUse">
<stop stop-color="#FE2120"/>
<stop offset="1" stop-color="#FD5825"/>
</linearGradient>
</defs>
</svg>
