<svg width="180" height="160" viewBox="0 0 180 160" fill="none" xmlns="http://www.w3.org/2000/svg">
<g clip-path="url(#clip0_783_12)">
<path d="M53.4018 25.5134C51.9509 24.933 50.3214 24.4196 48.5134 23.9732C46.9732 23.5937 45.1429 23.2478 43.0223 22.9353C40.9018 22.6004 38.558 22.433 35.9911 22.433C32.7545 22.433 30.2433 22.6897 28.4576 23.2031C26.6942 23.6942 25.8125 24.5759 25.8125 25.8482C25.8125 26.4955 26.0134 27.0424 26.4152 27.4888C26.817 27.9129 27.4643 28.2812 28.3571 28.5937C29.2723 28.8839 30.4554 29.1518 31.9063 29.3973C33.3571 29.6205 35.1205 29.8437 37.1964 30.067C41.75 30.5804 45.6228 31.2388 48.8147 32.0424C52.0067 32.8237 54.596 33.8281 56.5826 35.0558C58.5692 36.2612 60.0089 37.7344 60.9018 39.4754C61.817 41.1942 62.2746 43.2366 62.2746 45.6027C62.2746 48.4821 61.5938 50.9263 60.2321 52.9353C58.8929 54.9219 57.0179 56.5402 54.6071 57.7902C52.1964 59.0402 49.317 59.9442 45.9688 60.5022C42.6429 61.0603 38.9821 61.3393 34.9866 61.3393C32.7991 61.3393 30.7567 61.2612 28.8594 61.1049C26.9844 60.9487 25.2545 60.7366 23.6696 60.4688C22.1071 60.2232 20.6786 59.933 19.3839 59.5982C18.0893 59.2634 16.9397 58.9174 15.9353 58.5603C13.5692 57.7344 11.5938 56.7969 10.0089 55.7478L16.6384 46.0714C18.0446 46.7187 19.6629 47.2991 21.4933 47.8125C23.0335 48.2589 24.8862 48.6607 27.0513 49.0179C29.2388 49.375 31.6607 49.5536 34.317 49.5536C36.5045 49.5536 38.4464 49.4978 40.1429 49.3862C41.8393 49.2522 43.2679 49.0402 44.4286 48.75C45.5893 48.4375 46.471 48.0357 47.0737 47.5446C47.6763 47.0312 47.9777 46.3839 47.9777 45.6027C47.9777 45 47.7879 44.5089 47.4085 44.1295C47.0513 43.75 46.3705 43.4263 45.3661 43.1585C44.3839 42.8683 43.0112 42.6116 41.2478 42.3884C39.5067 42.1429 37.2411 41.8638 34.4509 41.5513C29.808 41.0603 26.0022 40.3348 23.0335 39.375C20.0647 38.3929 17.721 37.2321 16.0022 35.8929C14.3058 34.5312 13.1339 33.0022 12.4866 31.3058C11.8393 29.6094 11.5156 27.7902 11.5156 25.8482C11.5156 23.75 11.9509 21.7857 12.8214 19.9554C13.692 18.1027 15.0759 16.4955 16.9732 15.1339C18.8705 13.75 21.3259 12.6562 24.3393 11.8527C27.375 11.0491 31.0357 10.6473 35.3214 10.6473C39.4732 10.6473 43.0893 10.9263 46.1696 11.4844C49.2723 12.0201 51.8504 12.6116 53.904 13.2589C56.2924 14.0179 58.3348 14.8772 60.0313 15.8371L53.4018 25.5134Z" fill="#EB3636"/>
<path d="M70.1808 72.9799V100H56.0179V51.9866H74.3661L88.3281 80.1451L102.324 51.9866H120.638V100H106.475V72.9799L93.0491 100H83.6071L70.1808 72.9799Z" fill="#EB3636"/>
<path d="M123.181 120.98V148H109.018V99.9866H127.366L141.328 128.145L155.324 99.9866H173.638V148H159.475V120.98L146.049 148H136.607L123.181 120.98Z" fill="#EB3636"/>
</g>
<defs>
<clipPath id="clip0_783_12">
<rect width="180" height="160" fill="white"/>
</clipPath>
</defs>
</svg>
