<svg width="176" height="120" viewBox="0 0 176 120" fill="none" xmlns="http://www.w3.org/2000/svg">
<path d="M54.9531 0.832795V12.6185H34.5625V48.8462H20.3996V12.6185H0.00892873V0.832795L54.9531 0.832795ZM92.1853 41.0783H66.7388L62.4866 48.8462H47.2857L73.6362 0.832795H85.288L111.638 48.8462H96.4375L92.1853 41.0783ZM72.6317 30.2971H86.2924L79.4621 17.8082L72.6317 30.2971ZM116.661 48.8462V0.832795H148.234C151.337 0.832795 154.217 1.14529 156.873 1.77029C159.529 2.37297 161.817 3.35512 163.737 4.71672C165.679 6.07833 167.196 7.85288 168.29 10.0404C169.384 12.2056 169.931 14.8395 169.931 17.9422C169.931 19.9065 169.618 21.6364 168.993 23.1319C168.391 24.6051 167.621 25.8886 166.683 26.9824C165.746 28.0538 164.708 28.9355 163.569 29.6274C162.453 30.3194 161.393 30.844 160.388 31.2011L170.366 48.8462H155.165L146.761 34.0136H130.824V48.8462H116.661ZM130.824 12.652V23.2324H148.234C150.801 23.2324 152.676 22.8306 153.859 22.027C155.042 21.2011 155.634 19.8395 155.634 17.9422C155.634 16.0672 155.042 14.7167 153.859 13.8908C152.676 13.0649 150.801 12.652 148.234 12.652H130.824ZM14.9754 93.8395C14.9754 95.5359 15.2545 97.1989 15.8125 98.8283C16.3929 100.458 17.3973 101.909 18.8259 103.181C20.2545 104.453 22.1629 105.48 24.5513 106.261C26.9621 107.02 30.0089 107.4 33.692 107.4C36.192 107.4 38.3683 107.277 40.221 107.031C42.0737 106.786 43.4688 106.429 44.4063 105.96V99.1632H32.3527V88.6832H57.3304V112.523C55.8795 113.773 54.2388 114.822 52.4085 115.67C50.6005 116.518 48.6696 117.21 46.6161 117.746C44.5848 118.259 42.4643 118.627 40.2545 118.851C38.067 119.074 35.8795 119.185 33.692 119.185C28.0223 119.185 23.1116 118.527 18.9598 117.21C14.8304 115.871 11.404 114.063 8.6808 111.786C5.97991 109.487 3.97098 106.797 2.65402 103.717C1.33705 100.636 0.678572 97.344 0.678572 93.8395C0.678572 90.335 1.33705 87.0426 2.65402 83.9623C3.97098 80.8819 5.97991 78.2033 8.6808 75.9265C11.404 73.6274 14.8304 71.8194 18.9598 70.5024C23.1116 69.1632 28.0223 68.4935 33.692 68.4935C35.7679 68.4935 37.6875 68.5828 39.4509 68.7614C41.2366 68.9176 42.8772 69.1408 44.3728 69.431C45.8683 69.6989 47.2188 70.0114 48.4241 70.3685C49.6295 70.7257 50.7009 71.0828 51.6384 71.4399C53.8482 72.3105 55.6674 73.2815 57.096 74.3529L50.5 83.9623C49.183 83.2926 47.6652 82.6788 45.9464 82.1207C44.4732 81.6743 42.6987 81.2614 40.6228 80.8819C38.5692 80.4801 36.2589 80.2792 33.692 80.2792C30.0089 80.2792 26.9621 80.6698 24.5513 81.4511C22.1629 82.21 20.2545 83.2257 18.8259 84.498C17.3973 85.7703 16.3929 87.2212 15.8125 88.8507C15.2545 90.4801 14.9754 92.1431 14.9754 93.8395ZM112.978 87.8127V99.2971H78.8594V106.06H114.92V117.846H64.6964V69.8328H114.585V81.6185H78.8594V87.8127H112.978ZM175.221 69.8328V81.6185H154.83V117.846H140.667V81.6185H120.277V69.8328H175.221Z" fill="#24A7F1"/>
</svg>
